<svg width="163" height="163" xmlns="http://www.w3.org/2000/svg" xmlns:xlink="http://www.w3.org/1999/xlink">
 <!-- Created with Method Draw - http://github.com/duopixel/Method-Draw/ -->
 <g>
  <title>ukraine_flag_bg</title>
  <!-- 原版 蓝底 -->
  <!-- <rect fill="#37a0e8" id="source_bg" height="163" width="163" y="0" x="0"/> -->
  <!-- 新版 乌克兰国旗 -->
  <rect fill="#005bbb" id="ukraine-flag-upper" height="81.5" width="163" y="0" x="0"/>
  <rect fill="#ffd500" id="ukraine-flag-lower" height="81.5" width="163" y="81.5" x="0"/>
 </g>
 <g>
  <title>yyets_main</title>
  <!-- 内阴影滤镜 -->
  <filter id="inset-shadow">
    <!-- 投影偏移 -->
    <feOffset dx="-1" dy="1"/>
    <!-- 投影模糊 -->
    <feGaussianBlur stdDeviation="2" result="offset-blur"/>
    <!-- 反转投影使其变成内投影 -->
    <feComposite operator="out" in="SourceGraphic" in2="offset-blur" result="inverse"/>
    <!-- 内投影附加黑色 -->
    <feFlood flood-color="black" flood-opacity=".95" result="color"/>
    <feComposite operator="in" in="color" in2="inverse" result="shadow"/>
    <!-- 把内投影显示在图像上 -->
    <feComposite operator="over" in="shadow" in2="SourceGraphic"/> 
  </filter>
  <path stroke="#FFF" id="yyets-core-path" d="m56.479256,108.739805c-8.208796,9.944177 -19.655626,10.934875 -30.844486,10.687533c-11.18886,-0.247342 -31.074558,-14.154942 -30.577216,-33.067911c0.497341,-18.912968 13.676897,-26.359111 21.137023,-21.137023c7.460125,5.222088 6.465442,11.687531 3.978733,16.163606c-2.486708,4.476076 -0.24867,13.179556 7.211455,15.417594c7.460126,2.238037 11.936202,-2.238038 14.920252,-8.45481c2.98405,-6.216771 13.428226,-26.359111 19.893669,-39.538666c6.465442,-13.179556 25.861769,-1.989367 20.888352,9.200822c-4.973417,11.190188 -5.470759,11.68753 -11.190189,23.37506c-5.71943,11.687531 13.430884,22.877719 20.144997,10.941518c6.714113,-11.936201 3.727406,-7.708797 11.187531,-22.380377c7.460126,-14.671581 27.105124,-1.740696 20.391011,10.692847c-6.714113,12.433543 13.430884,24.373729 20.393668,11.691516c6.962784,-12.682214 27.351137,-6.96677 22.129049,6.710127c-16.163606,31.083858 -46.747465,21.384366 -57.688983,9.696835c-16.660947,16.660948 -39.516081,13.307091 -51.974866,0.001329z" fill="#FFF"  filter="url(#inset-shadow)"/>
 </g>
</svg>