<svg t="1623501475483" class="icon" viewBox="0 0 1024 1024" version="1.1" xmlns="http://www.w3.org/2000/svg" p-id="2525" width="64" height="64"><path d="M506.88 18.090667l25.941333 49.152c5.802667 8.874667 12.288 17.066667 19.797334 24.576 21.845333 21.845333 42.666667 44.714667 61.098666 69.290666 44.373333 58.026667 74.069333 122.197333 95.232 192.170667 12.970667 42.325333 19.797333 86.357333 20.138667 130.389333 2.048 132.096-43.008 245.76-134.485333 339.968-15.018667 15.018667-31.061333 28.672-48.128 40.96-9.216 0-13.312-6.826667-17.066667-13.312-6.826667-11.605333-11.264-24.917333-13.312-38.229333-3.072-16.042667-5.461333-32.085333-4.437333-48.469333v-7.509334c0-2.048-7.850667-735.573333-4.778667-738.986666z" fill="#599636" p-id="2526"></path><path d="M506.88 16.384c-1.024-2.048-2.048-0.682667-3.072 0.682667 0.682667 10.581333-3.072 20.138667-9.216 29.354666-6.144 9.216-15.018667 16.042667-23.552 23.552-47.445333 40.96-84.650667 90.453333-114.688 146.090667-39.253333 74.069333-59.733333 153.941333-65.536 238.250667-2.730667 30.378667 9.557333 137.557333 19.114667 168.277333 25.941333 81.92 73.045333 150.869333 133.802666 210.602667 15.018667 14.336 30.72 27.989333 47.445334 40.618666 4.778667 0 5.461333-4.437333 6.144-7.509333 2.048-6.826667 3.754667-13.653333 4.778666-20.821333l10.581334-79.872-5.802667-749.226667z" fill="#6CAC48" p-id="2527"></path><path d="M533.162667 897.024c1.024-12.288 6.826667-22.528 13.312-32.426667-6.144-2.730667-11.264-7.850667-15.018667-13.994666-3.072-5.461333-5.802667-11.605333-7.850667-17.408-7.509333-22.528-9.216-45.738667-11.264-68.608v-13.994667c-2.730667 2.048-3.072 20.138667-3.072 22.869333-1.706667 24.234667-4.778667 48.128-9.557333 72.021334-1.706667 9.557333-2.730667 19.114667-8.533333 27.648 0 1.024 0 2.048 0.682666 3.754666 9.557333 28.330667 12.288 57.002667 13.994667 86.357334v10.581333c0 12.629333-0.682667 10.24 10.24 14.336 4.437333 1.706667 9.216 2.048 13.312 5.461333 3.072 0 3.754667-2.730667 3.754667-4.778666l-1.706667-17.408v-49.152c-1.024-8.874667 0.682667-17.408 1.706667-25.258667z" fill="#C2BFBF" p-id="2528"></path></svg>