<svg t="1623501900789" class="icon" viewBox="0 0 1024 1024" version="1.1" xmlns="http://www.w3.org/2000/svg" p-id="3351" width="64" height="64"><path d="M282.195 198.194a202.223 202.223 0 0 0-34.453 3.6v1.255h1.75c6.343 10.769 17.937 18.432 26.36 28.177 6.343 11.264 12.652 22.032 18.994 33.032l1.75-1.552c11.562-6.904 17.21-17.607 17.21-34.288-5.285-5.12-5.615-9.744-9.843-14.336-3.865-7.168-14.766-10.504-21.801-15.888z" p-id="3352"></path><path d="M332.47 686.344l0.627-4.756 1.718 4.294c16.846 30.588 43.735 62.43 71.944 87.866l8.49 7.432c1.882 1.585 3.732 3.37 6.011 5.847l12.255 13.972c8.06 9.051 14.138 14.733 21.207 18.895l2.577 1.354 1.024 1.619 2.246-0.033 1.651 0.726 22.793 9.447v-43.206l-10.141-0.033-2.973-2.774-2.643-2.313a44.527 44.527 0 0 1-3.402-3.072 329.53 329.53 0 0 1-28.936-37.557 942.41 942.41 0 0 1-64.083-118.355 508.135 508.135 0 0 1-8.952-21.207l-15.855-41.686a30.885 30.885 0 0 1-1.553-4.295l-1.09-4.294c-3.039-12.354-5.153-17.573-12.816-22.891l-14.37-9.943-9.116 14.898a156.077 156.077 0 0 1-7.267 10.636l-3.37 4.559c-9.777 13.378-14.831 21.504-18.96 32.536l-1.619 4.295c-5.55 15.459-8.423 30.885-11.33 57.542l-1.024 9.48-5.55-15.063c-16.45-44.725-18.761-117.033-4.822-167.209l7.498-22.495c1.42-4.525 2.71-8.754 3.832-12.783l1.718-6.409c4.195-16.516 5.351-28.507 1.784-38.086l-0.694-1.585 0.396 1.189c-2.411-8.225-5.78-13.577-12.453-21.273l-7.795-8.754a33.693 33.693 0 0 1-3.105-4.129 215.668 215.668 0 0 1-19.291-39.374l-4.394-12.156c-2.312-6.97-4.624-14.633-7.564-25.071l-9.282-33.561a375.874 375.874 0 0 0-15.46-45.486 153.402 153.402 0 0 0-5.284-11.528l-3.304-6.21a364.824 364.824 0 0 0-8.06-13.874l-13.543-21.537c-1.585-2.576-3.237-5.087-5.087-7.795l-8.192-11.595c-8.984-12.65-13.378-19.885-17.375-29.729l-1.09-2.84c-1.915-5.45-2.477-9.25-2.246-9.613l1.123-2.807 3.931-2.28c-1.453 1.322 10.769 4.625 17.705 8.556 24.907 11.726 38.582 19.125 51.663 28.573l5.384 4.096 6.97 6.97c9.546 9.612 15.855 14.534 25.005 17.143l4.526 0.66 10.207-0.032-2.313-0.562c6.277 1.685 12.355 2.577 20.48 3.204l10.373 0.595c13.873 0.66 19.588 1.354 25.236 3.303 26.162 9.381 51.993 23.783 79.707 43.47 74.752 54.24 135.829 130.445 176.491 220.425 1.454 3.204 2.775 6.441 4.13 10.075l10.008 29.597 4.823 12.717 13.543 33.297 20.282 48.425 14.732 37.491c11.562 28.64 19.952 45.585 31.711 62.762 6.177 9.513 16.616 15.756 33.825 22.296l28.177 9.811c1.75 0.66 3.171 1.222 4.36 1.75l10.306 4.625 8.258 3.436c10.01 4.129 15.393 6.64 19.093 9.117l8.72 6.144 13.544 10.041c9.48 7.267 20.348 15.955 34.882 27.78l12.32 8.754-3.567 0.264c-26.26 2.015-49.02 7.07-69.5 15.46l-9.414 4.128-5.153 1.718c-16.648 5.153-25.633 11.528-27.251 28.078l-0.727 7.53 5.219 5.484 1.123 2.973 2.081 6.276c1.09 3.105 2.18 5.748 3.6 8.357 8.622 16.616 21.967 35.08 33.727 45.222 14.699 13.146 26.458 22.957 38.45 31.71l7.431 5.021c4.988 3.238 10.24 6.277 17.111 10.01l23.057 12.221c10.438 5.616 16.45 9.25 23.023 14.006l6.607 5.054 25.434 20.942c2.18 1.75 4.228 3.303 6.31 4.889l1.32 1.288 3.139 3.568c6.441 7.63 10.57 11.429 18.002 14.336l22.561 8.885V983.37l-3.435-4.459a15.063 15.063 0 0 1-1.784-3.204l-1.949-4.889a65.734 65.734 0 0 0-5.285-11.726 179.662 179.662 0 0 0-7.993-9.25l-7.334-7.993a137.084 137.084 0 0 1-3.435-4.03 303.335 303.335 0 0 0-63.422-69.368l-7.763-5.681-22.924-15.327-5.285-3.7a170.909 170.909 0 0 1-12.949-10.14l-2.048-1.884 17.375-5.417c5.22-1.553 10.405-2.61 17.573-3.634l20.48-2.642c7.862-1.123 13.147-2.147 19.688-3.898 6.87-2.015 13.741-4.261 21.504-6.937l19.026-6.771v-23.784l-4.096-4.657a120.171 120.171 0 0 1-9.91-13.411l-8.258-12.354a112.145 112.145 0 0 0-11.164-14.138 789.24 789.24 0 0 0-98.734-83.803 177.614 177.614 0 0 0-23.255-14.138l-27.218-13.543a303.566 303.566 0 0 1-6.375-3.303l-5.45-3.006a47.005 47.005 0 0 0-7.004-3.402l-9.249-3.634c-0.462-0.132-0.561-0.066-0.33 0.33a124.763 124.763 0 0 1-13.378-25.633l-9.381-23.188a2059.958 2059.958 0 0 1-36.336-86.05l-16.251-42.182-10.67-30.125a250.748 250.748 0 0 0-14.864-34.32c-59.789-112.244-125.49-183.726-231.226-254.283-14.37-9.216-28.144-14.864-50.54-21.405l-29.101-7.928-3.468-0.561-39.54-2.51-2.775-2.214a108.082 108.082 0 0 1-3.997-3.633l-12.519-11.99a79.178 79.178 0 0 0-2.874-2.313c-27.02-19.192-54.932-34.354-81.226-41.125-40.86-10.505-73.827 1.52-88.097 41.356-11.33 31.315-2.246 60.945 20.612 95.694l16.714 24.378 10.868 16.285 7.069 10.967c5.22 8.423 8.853 15.228 11.627 21.834l1.09 3.502c0.562 1.949 1.157 4.294 1.916 7.597l2.643 11.793 0.826 3.204 12.816 41.653 5.384 16.88c5.253 15.756 10.01 28.408 15.36 40.233l6.111 12.949c5.55 11.561 9.646 19.192 14.336 26.657l2.379 3.7a33.538 33.538 0 0 0 2.807 3.963l6.673 7.367 0.859 1.09-0.991 2.41c-1.817 4.625-3.237 9.778-4.69 16.616l-4.427 22.892c-0.396 1.783-0.76 3.303-1.19 4.888-21.536 77.725-13.74 175.104 18.499 235.388 9.018 15.624 16.384 26.129 26.558 35.345 16.681 15.128 36.27 20.38 56.485 10.801 20.15-9.117 27.086-22.924 31.447-53.215z" p-id="3353"></path></svg>