<svg t="1623501988317" class="icon" viewBox="0 0 1190 1024" version="1.1" xmlns="http://www.w3.org/2000/svg" p-id="4647" width="64" height="64"><path d="M1162.528119 404.840315c-27.122635-24.190458-59.976343-14.580915-92.363568 14.06112a1.079574 1.079574 0 0 1-0.746372 0.27989h-395.843864a49.700396 49.700396 0 0 0-49.553787 49.553787v435.961373A49.700396 49.700396 0 0 0 673.6143 954.290256h259.537627a1.146215 1.146215 0 0 1 1.132887 1.03959c2.452366 28.975238 6.9306 53.938724 12.635016 67.973189a1.132886 1.132886 0 0 0 1.586041 0.559779l2.159149-1.172871a1.146215 1.146215 0 0 0 0.533123-1.332807c-8.609937-27.269244-12.088565-62.841879-10.542509-103.799058 2.372398-63.268378 16.926657-139.584942 43.836043-219.113573 40.743929-107.624215 95.642275-196.189282 148.154895-246.569409a1.132886 1.132886 0 0 1 1.652682 1.546057c-50.046926 60.13628-109.53013 189.61854-128.695904 240.825008-22.244559 59.469876-38.464828 115.514436-48.807415 169.266568a1.132886 1.132886 0 0 0 2.132492 0.69306c20.178707-43.982651 66.080602-64.174687 69.90576-65.800712a0.999606 0.999606 0 0 0 0.426498-0.319874c2.399054-2.972161 28.33549-35.346058 58.723504-80.954735a1.132886 1.132886 0 0 0-1.186199-1.73265c-19.658912 4.518218-49.313882 11.648739-59.549845 15.993692l-0.466482 0.199921a1.10623 1.10623 0 0 1-0.959622-1.999211c18.819244-10.342587 48.91404-25.723187 76.263252-34.559702a1.146215 1.146215 0 0 0 0.599764-0.466483c60.469482-95.349057 126.163569-230.549062 59.843062-289.72572zM421.713659 435.068392a1091.289552 1091.289552 0 0 0 145.942435-9.542903c0-23.030916 2.878864-50.353472 2.878864-50.353472s138.611993-5.33123 194.696537-5.33123c49.220585-25.429969 78.182495-56.577683 78.182495-90.297717v-124.084389C843.41399 69.385965 654.408542 0 421.713659 0S0 69.385965 0 155.485337v124.084389C0 365.189288 188.525638 435.068392 421.713659 435.068392z" p-id="4648"></path><path d="M421.713659 528.2583C188.952136 528.2583 0 458.872336 0 372.772963v186.379818c0 85.592905 188.525638 155.485337 421.713659 155.485337 54.898346 0 102.026423-5.224606 150.154107-12.26183 0-67.973189-1.332808-103.958994-1.332808-184.060732a1088.53064 1088.53064 0 0 1-148.821299 9.942744z" p-id="4649"></path><path d="M0.426498 652.34269v186.379818C0.426498 924.328741 188.952136 994.274485 422.140158 994.274485c55.764671 0 100.986833-3.372003 149.727608-10.662461V797.018957c-49.313882 7.437067-93.656391 10.835726-150.154107 10.835726C188.952136 807.841355 0.426498 738.442062 0.426498 652.34269z" p-id="4650"></path></svg>